# xmcd CD database file
# Copyright (C) 1996 Ti Kan
#
# Track frame offsets:
#	150
#	19330
#	51067
#	73125
#	91805
#	109357
#	130285
#	147725
#	164105
#	179867
#	205252
# Disc length: 3108 seconds
#
# Revision: 3
# Processed by: cddbd v1.4PL0 Copyright (c) Steve Scherf et al.
# Submitted via: CDCOPY 4.900
#
DISCID=b40c220b
DTITLE=Joe Ely - Letter to Laredo
DYEAR=1900
DGENRE=
TTITLE0=All Just to Get to You
TTITLE1=Gallo Del Cielo
TTITLE2=Run Preciosa
TTITLE3=Saint Valentine
TTITLE4=Ranches and Rivers
TTITLE5=Letter to Laredo
TTITLE6=I Saw It in You
TTITLE7=She Finally Spoke Spanish to Me
TTITLE8=I Ain't Been Here Long
TTITLE9=That Ain't Enough
TTITLE10=I'm A Thousand Miles from Home
EXTD=
EXTT0=
EXTT1=
EXTT2=
EXTT3=
EXTT4=
EXTT5=
EXTT6=
EXTT7=
EXTT8=
EXTT9=
EXTT10=
PLAYORDER=
